{
  "accessors": [
    {
      "bufferView": 2,
      "componentType": 5126,
      "count": 9,
      "max": [
        36.24045181274414,
        4.861554145812988,
        36.55562210083008
      ],
      "min": [
        -35.94087600708008,
        -2.116298198699951,
        -30.446401596069336
      ],
      "type": "VEC3"
    },
    {
      "bufferView": 2,
      "byteOffset": 108,
      "componentType": 5126,
      "count": 9,
      "max": [
        0.019916167482733727,
        1.0,
        0.024203278124332428
      ],
      "min": [
        -0.019862599670886993,
        0.9995086789131165,
        -0.019296173006296158
      ],
      "type": "VEC3"
    },
    {
      "bufferView": 1,
      "componentType": 5126,
      "count": 9,
      "max": [
        0.5429540276527405,
        0.945969820022583
      ],
      "min": [
        0.06901325285434723,
        0.45969802141189575
      ],
      "type": "VEC2"
    },
    {
      "bufferView": 1,
      "byteOffset": 72,
      "componentType": 5126,
      "count": 9,
      "max": [
        0.5429540276527405,
        0.945969820022583
      ],
      "min": [
        0.06901325285434723,
        0.45969802141189575
      ],
      "type": "VEC2"
    },
    {
      "bufferView": 0,
      "componentType": 5125,
      "count": 24,
      "type": "SCALAR"
    },
    {
      "bufferView": 2,
      "byteOffset": 216,
      "componentType": 5126,
      "count": 9,
      "max": [
        23.211509704589844,
        4.861554145812988,
        27.33279800415039
      ],
      "min": [
        -22.526836395263672,
        -4.155744552612305,
        -27.876781463623047
      ],
      "type": "VEC3"
    },
    {
      "bufferView": 2,
      "byteOffset": 324,
      "componentType": 5126,
      "count": 9,
      "max": [
        0.12354198098182678,
        1.0,
        0.10160578042268753
      ],
      "min": [
        -0.1235419511795044,
        0.9872815012931824,
        -0.10160578042268753
      ],
      "type": "VEC3"
    },
    {
      "bufferView": 1,
      "byteOffset": 144,
      "componentType": 5126,
      "count": 9,
      "max": [
        0.9506069421768188,
        0.9098459482192993
      ],
      "min": [
        0.6547629833221436,
        0.5492298603057861
      ],
      "type": "VEC2"
    },
    {
      "bufferView": 1,
      "byteOffset": 216,
      "componentType": 5126,
      "count": 9,
      "max": [
        0.9506069421768188,
        0.9098459482192993
      ],
      "min": [
        0.6547629833221436,
        0.5492298603057861
      ],
      "type": "VEC2"
    },
    {
      "bufferView": 0,
      "byteOffset": 96,
      "componentType": 5125,
      "count": 24,
      "type": "SCALAR"
    },
    {
      "bufferView": 2,
      "byteOffset": 432,
      "componentType": 5126,
      "count": 4,
      "max": [
        10.603374481201172,
        7.582450866699219,
        11.757678985595703
      ],
      "min": [
        -10.645587921142578,
        4.861554145812988,
        -12.434490203857422
      ],
      "type": "VEC3"
    },
    {
      "bufferView": 2,
      "byteOffset": 480,
      "componentType": 5126,
      "count": 4,
      "max": [
        0.12622837722301483,
        0.9999032616615295,
        0.11087150871753693
      ],
      "min": [
        -0.12622839212417603,
        0.985785961151123,
        -0.11087148636579514
      ],
      "type": "VEC3"
    },
    {
      "bufferView": 1,
      "byteOffset": 288,
      "componentType": 5126,
      "count": 4,
      "max": [
        0.9146987199783325,
        0.28249385952949524
      ],
      "min": [
        0.7730389833450317,
        0.12121275067329407
      ],
      "type": "VEC2"
    },
    {
      "bufferView": 1,
      "byteOffset": 320,
      "componentType": 5126,
      "count": 4,
      "max": [
        0.9146987199783325,
        0.28249385952949524
      ],
      "min": [
        0.7730389833450317,
        0.12121275067329407
      ],
      "type": "VEC2"
    },
    {
      "bufferView": 0,
      "byteOffset": 192,
      "componentType": 5125,
      "count": 6,
      "type": "SCALAR"
    },
    {
      "bufferView": 2,
      "byteOffset": 528,
      "componentType": 5126,
      "count": 6,
      "max": [
        20.103870391845703,
        8.59701919555664,
        19.172321319580078
      ],
      "min": [
        -18.413732528686523,
        3.541750907897949,
        -19.392210006713867
      ],
      "type": "VEC3"
    },
    {
      "bufferView": 2,
      "byteOffset": 600,
      "componentType": 5126,
      "count": 6,
      "max": [
        0.062459319829940796,
        0.9978589415550232,
        0.06540266424417496
      ],
      "min": [
        -0.0624593123793602,
        0.99591064453125,
        0.06527494639158249
      ],
      "type": "VEC3"
    },
    {
      "bufferView": 1,
      "byteOffset": 352,
      "componentType": 5126,
      "count": 6,
      "max": [
        0.6921682953834534,
        0.3422029912471771
      ],
      "min": [
        0.43538427352905273,
        0.08510613441467285
      ],
      "type": "VEC2"
    },
    {
      "bufferView": 1,
      "byteOffset": 400,
      "componentType": 5126,
      "count": 6,
      "max": [
        0.6921682953834534,
        0.3422029912471771
      ],
      "min": [
        0.43538427352905273,
        0.08510613441467285
      ],
      "type": "VEC2"
    },
    {
      "bufferView": 0,
      "byteOffset": 216,
      "componentType": 5125,
      "count": 12,
      "type": "SCALAR"
    },
    {
      "bufferView": 2,
      "byteOffset": 672,
      "componentType": 5126,
      "count": 6,
      "max": [
        14.696268081665039,
        6.576723098754883,
        19.172321319580078
      ],
      "min": [
        -14.456844329833984,
        3.3348124027252197,
        -19.392210006713867
      ],
      "type": "VEC3"
    },
    {
      "bufferView": 2,
      "byteOffset": 744,
      "componentType": 5126,
      "count": 6,
      "max": [
        0.006461269222199917,
        0.9991177916526794,
        -0.041995737701654434
      ],
      "min": [
        -0.006461271550506353,
        0.9990969300270081,
        -0.04199662432074547
      ],
      "type": "VEC3"
    },
    {
      "bufferView": 1,
      "byteOffset": 448,
      "componentType": 5126,
      "count": 6,
      "max": [
        0.32543233036994934,
        0.3422030210494995
      ],
      "min": [
        0.13107828795909882,
        0.08510613441467285
      ],
      "type": "VEC2"
    },
    {
      "bufferView": 1,
      "byteOffset": 496,
      "componentType": 5126,
      "count": 6,
      "max": [
        0.32543233036994934,
        0.3422030210494995
      ],
      "min": [
        0.13107828795909882,
        0.08510613441467285
      ],
      "type": "VEC2"
    },
    {
      "bufferView": 0,
      "byteOffset": 264,
      "componentType": 5125,
      "count": 12,
      "type": "SCALAR"
    }
  ],
  "asset": {
    "extras": {
      "author": "RBG_illustrations (https://sketchfab.com/RBG_illustrations)",
      "license": "CC-BY-4.0 (http://creativecommons.org/licenses/by/4.0/)",
      "source": "https://sketchfab.com/3d-models/cherry-blossom-petals-flowers-and-flower-bud-adc60093c9e643a4b5ab35346d7d6d15",
      "title": "Cherry Blossom Petals, Flowers and Flower Bud"
    },
    "generator": "Sketchfab-12.67.0",
    "version": "2.0"
  },
  "bufferViews": [
    {
      "buffer": 0,
      "byteLength": 312,
      "name": "floatBufferViews",
      "target": 34963
    },
    {
      "buffer": 0,
      "byteLength": 544,
      "byteOffset": 312,
      "byteStride": 8,
      "name": "floatBufferViews",
      "target": 34962
    },
    {
      "buffer": 0,
      "byteLength": 816,
      "byteOffset": 856,
      "byteStride": 12,
      "name": "floatBufferViews",
      "target": 34962
    }
  ],
  "buffers": [
    {
      "byteLength": 1672,
      "uri": "scene.bin"
    }
  ],
  "images": [
    {
      "uri": "textures/cherry_tree_leaves_baseColor.png"
    }
  ],
  "materials": [
    {
      "alphaMode": "BLEND",
      "doubleSided": true,
      "name": "cherry_tree_leaves",
      "pbrMetallicRoughness": {
        "baseColorTexture": {
          "index": 0
        },
        "metallicFactor": 0.0,
        "roughnessFactor": 0.6
      }
    },
    {
      "alphaMode": "BLEND",
      "doubleSided": true,
      "name": "cherry_tree_leaves1",
      "pbrMetallicRoughness": {
        "baseColorTexture": {
          "index": 0
        },
        "metallicFactor": 0.0
      }
    },
    {
      "alphaMode": "BLEND",
      "doubleSided": true,
      "name": "cherry_tree_leaves2",
      "pbrMetallicRoughness": {
        "baseColorTexture": {
          "index": 0
        },
        "metallicFactor": 0.0,
        "roughnessFactor": 0.6
      }
    },
    {
      "alphaMode": "BLEND",
      "doubleSided": true,
      "name": "cherry_tree_leaves3",
      "pbrMetallicRoughness": {
        "baseColorTexture": {
          "index": 0
        },
        "metallicFactor": 0.0,
        "roughnessFactor": 0.6
      }
    },
    {
      "alphaMode": "BLEND",
      "doubleSided": true,
      "name": "cherry_tree_leaves4",
      "pbrMetallicRoughness": {
        "baseColorTexture": {
          "index": 0
        },
        "metallicFactor": 0.0,
        "roughnessFactor": 0.6
      }
    }
  ],
  "meshes": [
    {
      "name": "flower_1_cherry_tree_leaves_0",
      "primitives": [
        {
          "attributes": {
            "NORMAL": 1,
            "POSITION": 0,
            "TEXCOORD_0": 2,
            "TEXCOORD_1": 3
          },
          "indices": 4,
          "material": 0,
          "mode": 4
        }
      ]
    },
    {
      "name": "flower_2_cherry_tree_leaves1_0",
      "primitives": [
        {
          "attributes": {
            "NORMAL": 6,
            "POSITION": 5,
            "TEXCOORD_0": 7,
            "TEXCOORD_1": 8
          },
          "indices": 9,
          "material": 1,
          "mode": 4
        }
      ]
    },
    {
      "name": "bud_cherry_tree_leaves2_0",
      "primitives": [
        {
          "attributes": {
            "NORMAL": 11,
            "POSITION": 10,
            "TEXCOORD_0": 12,
            "TEXCOORD_1": 13
          },
          "indices": 14,
          "material": 2,
          "mode": 4
        }
      ]
    },
    {
      "name": "petal_1_cherry_tree_leaves3_0",
      "primitives": [
        {
          "attributes": {
            "NORMAL": 16,
            "POSITION": 15,
            "TEXCOORD_0": 17,
            "TEXCOORD_1": 18
          },
          "indices": 19,
          "material": 3,
          "mode": 4
        }
      ]
    },
    {
      "name": "petal_2_cherry_tree_leaves4_0",
      "primitives": [
        {
          "attributes": {
            "NORMAL": 21,
            "POSITION": 20,
            "TEXCOORD_0": 22,
            "TEXCOORD_1": 23
          },
          "indices": 24,
          "material": 4,
          "mode": 4
        }
      ]
    }
  ],
  "nodes": [
    {
      "children": [
        1
      ],
      "matrix": [
        1.0,
        0.0,
        0.0,
        0.0,
        0.0,
        2.220446049250313e-16,
        -1.0,
        0.0,
        0.0,
        1.0,
        2.220446049250313e-16,
        0.0,
        0.0,
        0.0,
        0.0,
        1.0
      ],
      "name": "Sketchfab_model"
    },
    {
      "children": [
        2
      ],
      "matrix": [
        1.0,
        0.0,
        0.0,
        0.0,
        0.0,
        0.0,
        1.0,
        0.0,
        0.0,
        -1.0,
        0.0,
        0.0,
        0.0,
        0.0,
        0.0,
        1.0
      ],
      "name": "cherry tree fallen leaves.fbx"
    },
    {
      "children": [
        3,
        5,
        7,
        9,
        11
      ],
      "name": "RootNode"
    },
    {
      "children": [
        4
      ],
      "matrix": [
        1.0,
        0.0,
        0.0,
        0.0,
        0.0,
        1.0,
        0.0,
        0.0,
        0.0,
        0.0,
        1.0,
        0.0,
        83.44802856445313,
        0.0,
        0.0,
        1.0
      ],
      "name": "flower_1"
    },
    {
      "mesh": 0,
      "name": "flower_1_cherry_tree_leaves_0"
    },
    {
      "children": [
        6
      ],
      "matrix": [
        1.0,
        0.0,
        0.0,
        0.0,
        0.0,
        1.0,
        0.0,
        0.0,
        0.0,
        0.0,
        1.0,
        0.0,
        -62.517181396484375,
        0.0,
        0.0,
        1.0
      ],
      "name": "flower_2"
    },
    {
      "mesh": 1,
      "name": "flower_2_cherry_tree_leaves1_0"
    },
    {
      "children": [
        8
      ],
      "matrix": [
        1.0,
        0.0,
        0.0,
        0.0,
        0.0,
        1.0,
        0.0,
        0.0,
        0.0,
        0.0,
        1.0,
        0.0,
        0.0,
        0.0,
        51.35996627807617,
        1.0
      ],
      "name": "bud"
    },
    {
      "mesh": 2,
      "name": "bud_cherry_tree_leaves2_0"
    },
    {
      "children": [
        10
      ],
      "matrix": [
        1.0,
        0.0,
        0.0,
        0.0,
        0.0,
        1.0,
        0.0,
        0.0,
        0.0,
        0.0,
        1.0,
        0.0,
        0.0,
        0.0,
        -53.19757080078125,
        1.0
      ],
      "name": "petal_1"
    },
    {
      "mesh": 3,
      "name": "petal_1_cherry_tree_leaves3_0"
    },
    {
      "children": [
        12
      ],
      "name": "petal_2"
    },
    {
      "mesh": 4,
      "name": "petal_2_cherry_tree_leaves4_0"
    }
  ],
  "samplers": [
    {
      "magFilter": 9729,
      "minFilter": 9987,
      "wrapS": 10497,
      "wrapT": 10497
    }
  ],
  "scene": 0,
  "scenes": [
    {
      "name": "Sketchfab_Scene",
      "nodes": [
        0
      ]
    }
  ],
  "textures": [
    {
      "sampler": 0,
      "source": 0
    }
  ]
}
